<svg xmlns="http://www.w3.org/2000/svg" xmlns:xlink="http://www.w3.org/1999/xlink" width="46.6" height="46.491" viewBox="0 0 46.6 46.491">
  <defs>
    <linearGradient id="linear-gradient" x1="0.5" x2="0.5" y2="1" gradientUnits="objectBoundingBox">
      <stop offset="0" stop-color="#20d0b3"/>
      <stop offset="1" stop-color="#1dcdfe"/>
    </linearGradient>
  </defs>
  <path id="info-outline" d="M20.954,35.174V21.2h4.692v13.97ZM23.3.25A22.452,22.452,0,0,1,39.78,7.07,22.389,22.389,0,0,1,46.6,23.5a22.389,22.389,0,0,1-6.82,16.425A22.452,22.452,0,0,1,23.3,46.741a22.452,22.452,0,0,1-16.479-6.82A22.394,22.394,0,0,1,0,23.5,22.383,22.383,0,0,1,6.82,7.07,22.456,22.456,0,0,1,23.3.25Zm0,41.908A17.925,17.925,0,0,0,36.452,36.7a17.987,17.987,0,0,0,5.457-13.2,17.987,17.987,0,0,0-5.457-13.2A17.925,17.925,0,0,0,23.3,4.834,17.925,17.925,0,0,0,10.15,10.291,17.987,17.987,0,0,0,4.692,23.5,17.987,17.987,0,0,0,10.15,36.7,17.925,17.925,0,0,0,23.3,42.158ZM20.954,16.512V11.819h4.692v4.692Z" transform="translate(0 -0.25)" fill="url(#linear-gradient)"/>
</svg>
