<svg xmlns="http://www.w3.org/2000/svg" xmlns:xlink="http://www.w3.org/1999/xlink" width="51.338" height="59.894" viewBox="0 0 51.338 59.894">
  <defs>
    <linearGradient id="linear-gradient" x1="0.057" y1="0.059" x2="0.948" y2="0.936" gradientUnits="objectBoundingBox">
      <stop offset="0" stop-color="#1dcdfe"/>
      <stop offset="1" stop-color="#34f5c6"/>
    </linearGradient>
  </defs>
  <g id="file-text" transform="translate(-4.5 -2.25)">
    <path id="Path_330" data-name="Path 330" d="M13.056,2.25H47.282a8.556,8.556,0,0,1,8.556,8.556V53.588a8.556,8.556,0,0,1-8.556,8.556H13.056A8.556,8.556,0,0,1,4.5,53.588V10.806A8.556,8.556,0,0,1,13.056,2.25Zm0,4.278a4.278,4.278,0,0,0-4.278,4.278V53.588a4.278,4.278,0,0,0,4.278,4.278H47.282a4.278,4.278,0,0,0,4.278-4.278V10.806a4.278,4.278,0,0,0-4.278-4.278Z" transform="translate(0 0)" fill="url(#linear-gradient)"/>
    <path id="Path_331" data-name="Path 331" d="M10.125,36.808a2.139,2.139,0,0,1,2.139-2.139H25.1a2.139,2.139,0,1,1,0,4.278H12.264A2.139,2.139,0,0,1,10.125,36.808Zm0-8.556a2.139,2.139,0,0,1,2.139-2.139H37.933a2.139,2.139,0,0,1,0,4.278H12.264A2.139,2.139,0,0,1,10.125,28.252Zm0-8.556a2.139,2.139,0,0,1,2.139-2.139H37.933a2.139,2.139,0,0,1,0,4.278H12.264A2.139,2.139,0,0,1,10.125,19.7Zm0-8.556A2.139,2.139,0,0,1,12.264,9H37.933a2.139,2.139,0,0,1,0,4.278H12.264A2.139,2.139,0,0,1,10.125,11.139Z" transform="translate(5.07 6.085)" fill="url(#linear-gradient)"/>
  </g>
</svg>
