<svg xmlns="http://www.w3.org/2000/svg" width="20.5" height="20.5" viewBox="0 0 20.5 20.5">
  <path id="calendar" d="M19.821,3.715h-.732V3a.746.746,0,0,0-.7-.752.732.732,0,0,0-.767.731v.732H7.375V3a.746.746,0,0,0-.7-.752.732.732,0,0,0-.767.731v.732H5.179A2.929,2.929,0,0,0,2.25,6.643V19.822A2.929,2.929,0,0,0,5.179,22.75H19.821a2.929,2.929,0,0,0,2.929-2.929V6.643A2.929,2.929,0,0,0,19.821,3.715ZM7.009,19.822a1.1,1.1,0,1,1,1.1-1.1A1.1,1.1,0,0,1,7.009,19.822Zm0-3.661a1.1,1.1,0,1,1,1.1-1.1A1.1,1.1,0,0,1,7.009,16.161Zm3.661,3.661a1.1,1.1,0,1,1,1.1-1.1A1.1,1.1,0,0,1,10.67,19.822Zm0-3.661a1.1,1.1,0,1,1,1.1-1.1A1.1,1.1,0,0,1,10.67,16.161Zm3.661,3.661a1.1,1.1,0,1,1,1.1-1.1A1.1,1.1,0,0,1,14.331,19.822Zm0-3.661a1.1,1.1,0,1,1,1.1-1.1A1.1,1.1,0,0,1,14.331,16.161Zm0-3.661a1.1,1.1,0,1,1,1.1-1.1A1.1,1.1,0,0,1,14.331,12.5Zm3.661,3.661a1.1,1.1,0,1,1,1.1-1.1A1.1,1.1,0,0,1,17.991,16.161Zm0-3.661a1.1,1.1,0,1,1,1.1-1.1A1.1,1.1,0,0,1,17.991,12.5Zm3.295-5.491v.732a.366.366,0,0,1-.366.366H4.081a.366.366,0,0,1-.366-.366v-1.1A1.468,1.468,0,0,1,5.179,5.178H19.821a1.468,1.468,0,0,1,1.464,1.464Z" transform="translate(-2.25 -2.251)" fill="#2d465c"/>
</svg>
