<svg xmlns="http://www.w3.org/2000/svg" width="21.364" height="18.987" viewBox="0 0 21.364 18.987">
  <path id="Icon_awesome-edit" data-name="Icon awesome-edit" d="M14.933,3.089l3.346,3.346a.363.363,0,0,1,0,.512l-8.1,8.1-3.442.382a.721.721,0,0,1-.8-.8L6.32,11.19l8.1-8.1A.363.363,0,0,1,14.933,3.089Zm6.009-.849L19.131.43a1.451,1.451,0,0,0-2.047,0L15.771,1.743a.363.363,0,0,0,0,.512L19.117,5.6a.363.363,0,0,0,.512,0l1.313-1.313a1.451,1.451,0,0,0,0-2.047Zm-6.7,10.6V16.62H2.374V4.751H10.9a.456.456,0,0,0,.315-.13L12.7,3.137a.445.445,0,0,0-.315-.76H1.78A1.781,1.781,0,0,0,0,4.157V17.213a1.781,1.781,0,0,0,1.78,1.78H14.836a1.781,1.781,0,0,0,1.78-1.78V11.361a.446.446,0,0,0-.76-.315l-1.484,1.484A.456.456,0,0,0,14.243,12.844Z" transform="translate(0 -0.007)" fill="#2d465c"/>
</svg>
