<svg xmlns="http://www.w3.org/2000/svg" xmlns:xlink="http://www.w3.org/1999/xlink" width="52.002" height="52" viewBox="0 0 52.002 52">
  <defs>
    <linearGradient id="linear-gradient" x1="1" y1="0.921" x2="0.098" y2="0.108" gradientUnits="objectBoundingBox">
      <stop offset="0" stop-color="#34f5c6"/>
      <stop offset="1" stop-color="#1dcdfe"/>
    </linearGradient>
  </defs>
  <g id="file-earmark-check" transform="translate(-4.5 -2.25)">
    <path id="Path_332" data-name="Path 332" d="M30.5,2.25H11.929A7.429,7.429,0,0,0,4.5,9.679V46.821a7.429,7.429,0,0,0,7.429,7.429H30.5V50.535H11.929a3.714,3.714,0,0,1-3.714-3.714V9.679a3.714,3.714,0,0,1,3.714-3.714H30.5V15.25a5.571,5.571,0,0,0,5.571,5.571h9.286V28.25h3.714V20.821Z" transform="translate(0)" fill="url(#linear-gradient)"/>
    <path id="Path_333" data-name="Path 333" d="M43.512,23.044a1.857,1.857,0,0,1,0,2.63L32.369,36.817a1.857,1.857,0,0,1-2.63,0l-5.571-5.571a1.859,1.859,0,1,1,2.63-2.63l4.257,4.261,9.829-9.832a1.857,1.857,0,0,1,2.63,0Z" transform="translate(12.445 13.177)" fill="url(#linear-gradient)"/>
  </g>
</svg>
