<svg xmlns="http://www.w3.org/2000/svg" xmlns:xlink="http://www.w3.org/1999/xlink" version="1.1" width="65" height="55" viewBox="0 0 256 256" xml:space="preserve">
<desc>Created with Fabric.js 1.7.22</desc>
<defs>
</defs>
<g transform="translate(128 128) scale(0.72 0.72)" style="">
	<g style="stroke: none; stroke-width: 0; stroke-dasharray: none; stroke-linecap: butt; stroke-linejoin: miter; stroke-miterlimit: 10; fill: none; fill-rule: nonzero; opacity: 1;" transform="translate(-175.05 -175.05000000000004) scale(3.89 3.89)" >
	<path d="M 87.181 59.237 H 2.819 C 1.262 59.237 0 57.975 0 56.418 V 33.582 c 0 -1.557 1.262 -2.819 2.819 -2.819 h 84.362 c 1.557 0 2.819 1.262 2.819 2.819 v 22.837 C 90 57.975 88.738 59.237 87.181 59.237 z" style="stroke: none; stroke-width: 1; stroke-dasharray: none; stroke-linecap: butt; stroke-linejoin: miter; stroke-miterlimit: 10; fill: rgb(45, 70, 91); fill-rule: nonzero; opacity: 1;" transform=" matrix(1 0 0 1 0 0) " stroke-linecap="round" />
	<path d="M 8.368 50.785 H 5.169 c -0.488 0 -0.884 -0.396 -0.884 -0.884 s 0.396 -0.884 0.884 -0.884 h 3.199 c 0.451 0 0.818 -0.367 0.818 -0.818 v -1.495 c 0 -0.451 -0.367 -0.819 -0.818 -0.819 H 6.587 C 5.16 45.884 4 44.724 4 43.298 v -1.496 c 0 -1.427 1.16 -2.587 2.587 -2.587 h 2.296 c 0.488 0 0.884 0.396 0.884 0.884 s -0.396 0.884 -0.884 0.884 H 6.587 c -0.451 0 -0.818 0.367 -0.818 0.819 v 1.496 c 0 0.451 0.367 0.818 0.818 0.818 h 1.781 c 1.426 0 2.587 1.16 2.587 2.587 v 1.495 C 10.954 49.625 9.794 50.785 8.368 50.785 z" style="stroke: none; stroke-width: 1; stroke-dasharray: none; stroke-linecap: butt; stroke-linejoin: miter; stroke-miterlimit: 10; fill: rgb(52,245,198); fill-rule: nonzero; opacity: 1;" transform=" matrix(1 0 0 1 0 0) " stroke-linecap="round" />
	<path d="M 18.59 50.785 h -1.857 c -1.653 0 -2.998 -1.345 -2.998 -2.998 v -7.689 c 0 -0.488 0.396 -0.884 0.884 -0.884 s 0.884 0.396 0.884 0.884 v 7.689 c 0 0.678 0.551 1.229 1.229 1.229 h 1.857 c 0.678 0 1.229 -0.551 1.229 -1.229 v -7.689 c 0 -0.488 0.396 -0.884 0.884 -0.884 c 0.488 0 0.884 0.396 0.884 0.884 v 7.689 C 21.588 49.441 20.244 50.785 18.59 50.785 z" style="stroke: none; stroke-width: 1; stroke-dasharray: none; stroke-linecap: butt; stroke-linejoin: miter; stroke-miterlimit: 10; fill: rgb(52,245,198); fill-rule: nonzero; opacity: 1;" transform=" matrix(1 0 0 1 0 0) " stroke-linecap="round" />
	<path d="M 85.116 50.785 h -5.249 c -0.488 0 -0.884 -0.396 -0.884 -0.884 v -9.803 c 0 -0.488 0.396 -0.884 0.884 -0.884 h 5.249 c 0.488 0 0.884 0.396 0.884 0.884 s -0.396 0.884 -0.884 0.884 h -4.365 v 8.035 h 4.365 c 0.488 0 0.884 0.396 0.884 0.884 S 85.604 50.785 85.116 50.785 z" style="stroke: none; stroke-width: 1; stroke-dasharray: none; stroke-linecap: butt; stroke-linejoin: miter; stroke-miterlimit: 10; fill: rgb(52, 245, 198); fill-rule: nonzero; opacity: 1;" transform=" matrix(1 0 0 1 0 0) " stroke-linecap="round" />
	<path d="M 85.116 45.884 h -5.249 c -0.488 0 -0.884 -0.396 -0.884 -0.884 c 0 -0.488 0.396 -0.884 0.884 -0.884 h 5.249 C 85.604 44.116 86 44.512 86 45 C 86 45.488 85.604 45.884 85.116 45.884 z" style="stroke: none; stroke-width: 1; stroke-dasharray: none; stroke-linecap: butt; stroke-linejoin: miter; stroke-miterlimit: 10; fill: rgb(52, 245, 198); fill-rule: nonzero; opacity: 1;" transform=" matrix(1 0 0 1 0 0) " stroke-linecap="round" />
	<path d="M 28.628 45.884 h -3.375 c -0.488 0 -0.884 -0.396 -0.884 -0.884 v -4.902 c 0 -0.488 0.396 -0.884 0.884 -0.884 h 3.375 c 1.521 0 2.758 1.238 2.758 2.759 v 1.153 C 31.386 44.647 30.149 45.884 28.628 45.884 z M 26.138 44.116 h 2.491 c 0.546 0 0.99 -0.444 0.99 -0.99 v -1.153 c 0 -0.546 -0.444 -0.991 -0.99 -0.991 h -2.491 V 44.116 z" style="stroke: none; stroke-width: 1; stroke-dasharray: none; stroke-linecap: butt; stroke-linejoin: miter; stroke-miterlimit: 10; fill: rgb(52,245,198); fill-rule: nonzero; opacity: 1;" transform=" matrix(1 0 0 1 0 0) " stroke-linecap="round" />
	<path d="M 28.628 50.785 h -3.375 c -0.488 0 -0.884 -0.396 -0.884 -0.884 V 45 c 0 -0.488 0.396 -0.884 0.884 -0.884 h 3.375 c 1.521 0 2.758 1.238 2.758 2.759 v 1.152 C 31.386 49.548 30.149 50.785 28.628 50.785 z M 26.138 49.017 h 2.491 c 0.546 0 0.99 -0.444 0.99 -0.99 v -1.152 c 0 -0.546 -0.444 -0.991 -0.99 -0.991 h -2.491 V 49.017 z" style="stroke: none; stroke-width: 1; stroke-dasharray: none; stroke-linecap: butt; stroke-linejoin: miter; stroke-miterlimit: 10; fill: rgb(52,245,198); fill-rule: nonzero; opacity: 1;" transform=" matrix(1 0 0 1 0 0) " stroke-linecap="round" />
	<path d="M 38.616 50.785 h -3.199 c -0.488 0 -0.884 -0.396 -0.884 -0.884 s 0.396 -0.884 0.884 -0.884 h 3.199 c 0.451 0 0.818 -0.367 0.818 -0.818 v -1.495 c 0 -0.451 -0.367 -0.819 -0.818 -0.819 h -1.781 c -1.426 0 -2.587 -1.16 -2.587 -2.587 v -1.496 c 0 -1.427 1.16 -2.587 2.587 -2.587 h 2.295 c 0.488 0 0.884 0.396 0.884 0.884 s -0.396 0.884 -0.884 0.884 h -2.295 c -0.451 0 -0.818 0.367 -0.818 0.819 v 1.496 c 0 0.451 0.367 0.818 0.818 0.818 h 1.781 c 1.426 0 2.587 1.16 2.587 2.587 v 1.495 C 41.202 49.625 40.042 50.785 38.616 50.785 z" style="stroke: none; stroke-width: 1; stroke-dasharray: none; stroke-linecap: butt; stroke-linejoin: miter; stroke-miterlimit: 10; fill: rgb(52,245,198); fill-rule: nonzero; opacity: 1;" transform=" matrix(1 0 0 1 0 0) " stroke-linecap="round" />
	<path d="M 73.443 45.884 h -3.374 c -0.488 0 -0.884 -0.396 -0.884 -0.884 v -4.902 c 0 -0.488 0.396 -0.884 0.884 -0.884 h 3.374 c 1.522 0 2.759 1.238 2.759 2.759 v 1.153 C 76.202 44.647 74.965 45.884 73.443 45.884 z M 70.953 44.116 h 2.49 c 0.547 0 0.991 -0.444 0.991 -0.99 v -1.153 c 0 -0.546 -0.444 -0.991 -0.991 -0.991 h -2.49 V 44.116 z" style="stroke: none; stroke-width: 1; stroke-dasharray: none; stroke-linecap: butt; stroke-linejoin: miter; stroke-miterlimit: 10; fill: rgb(52,245,198); fill-rule: nonzero; opacity: 1;" transform=" matrix(1 0 0 1 0 0) " stroke-linecap="round" />
	<path d="M 73.443 50.785 h -3.374 c -0.488 0 -0.884 -0.396 -0.884 -0.884 V 45 c 0 -0.488 0.396 -0.884 0.884 -0.884 h 3.374 c 1.522 0 2.759 1.238 2.759 2.759 v 1.152 C 76.202 49.548 74.965 50.785 73.443 50.785 z M 70.953 49.017 h 2.49 c 0.547 0 0.991 -0.444 0.991 -0.99 v -1.152 c 0 -0.546 -0.444 -0.991 -0.991 -0.991 h -2.49 V 49.017 z" style="stroke: none; stroke-width: 1; stroke-dasharray: none; stroke-linecap: butt; stroke-linejoin: miter; stroke-miterlimit: 10; fill: rgb(52,245,198); fill-rule: nonzero; opacity: 1;" transform=" matrix(1 0 0 1 0 0) " stroke-linecap="round" />
	<path d="M 50.27 50.785 h -3.283 c -1.571 0 -2.85 -1.278 -2.85 -2.849 v -5.872 c 0 -1.572 1.279 -2.85 2.85 -2.85 h 3.283 c 0.488 0 0.884 0.396 0.884 0.884 s -0.396 0.884 -0.884 0.884 h -3.283 c -0.596 0 -1.082 0.485 -1.082 1.082 v 5.872 c 0 0.596 0.486 1.081 1.082 1.081 h 3.283 c 0.488 0 0.884 0.396 0.884 0.884 S 50.758 50.785 50.27 50.785 z" style="stroke: none; stroke-width: 1; stroke-dasharray: none; stroke-linecap: butt; stroke-linejoin: miter; stroke-miterlimit: 10; fill: rgb(52,245,198); fill-rule: nonzero; opacity: 1;" transform=" matrix(1 0 0 1 0 0) " stroke-linecap="round" />
	<path d="M 58.194 45.884 h -3.374 c -0.488 0 -0.884 -0.396 -0.884 -0.884 v -4.902 c 0 -0.488 0.396 -0.884 0.884 -0.884 h 3.374 c 1.521 0 2.758 1.238 2.758 2.759 v 1.153 C 60.952 44.647 59.714 45.884 58.194 45.884 z M 55.704 44.116 h 2.49 c 0.546 0 0.99 -0.444 0.99 -0.99 v -1.153 c 0 -0.546 -0.444 -0.991 -0.99 -0.991 h -2.49 V 44.116 z" style="stroke: none; stroke-width: 1; stroke-dasharray: none; stroke-linecap: butt; stroke-linejoin: miter; stroke-miterlimit: 10; fill: rgb(52,245,198); fill-rule: nonzero; opacity: 1;" transform=" matrix(1 0 0 1 0 0) " stroke-linecap="round" />
	<path d="M 60.068 50.785 c -0.488 0 -0.884 -0.396 -0.884 -0.884 v -3.026 c 0 -0.546 -0.444 -0.991 -0.99 -0.991 h -2.49 v 4.017 c 0 0.488 -0.396 0.884 -0.884 0.884 c -0.488 0 -0.884 -0.396 -0.884 -0.884 V 45 c 0 -0.488 0.396 -0.884 0.884 -0.884 h 3.374 c 1.521 0 2.758 1.238 2.758 2.759 v 3.026 C 60.952 50.389 60.556 50.785 60.068 50.785 z" style="stroke: none; stroke-width: 1; stroke-dasharray: none; stroke-linecap: butt; stroke-linejoin: miter; stroke-miterlimit: 10; fill: rgb(52,245,198); fill-rule: nonzero; opacity: 1;" transform=" matrix(1 0 0 1 0 0) " stroke-linecap="round" />
	<path d="M 65.068 50.785 c -0.488 0 -0.884 -0.396 -0.884 -0.884 v -9.803 c 0 -0.488 0.396 -0.884 0.884 -0.884 c 0.488 0 0.884 0.396 0.884 0.884 v 9.803 C 65.952 50.389 65.556 50.785 65.068 50.785 z" style="stroke: none; stroke-width: 1; stroke-dasharray: none; stroke-linecap: butt; stroke-linejoin: miter; stroke-miterlimit: 10; fill: rgb(52,245,198); fill-rule: nonzero; opacity: 1;" transform=" matrix(1 0 0 1 0 0) " stroke-linecap="round" />
</g>
</g>
</svg>