<svg xmlns="http://www.w3.org/2000/svg" xmlns:xlink="http://www.w3.org/1999/xlink" width="45" height="52.5" viewBox="0 0 45 52.5">
  <defs>
    <linearGradient id="linear-gradient" x1="1.38" y1="1.994" x2="0.269" y2="-0.355" gradientUnits="objectBoundingBox">
      <stop offset="0" stop-color="#34f5c6"/>
      <stop offset="1" stop-color="#1dcdfe"/>
    </linearGradient>
  </defs>
  <g id="file-text" transform="translate(-4.5 -2.25)">
    <path id="Path_334" data-name="Path 334" d="M12,2.25H42a7.5,7.5,0,0,1,7.5,7.5v37.5a7.5,7.5,0,0,1-7.5,7.5H12a7.5,7.5,0,0,1-7.5-7.5V9.75A7.5,7.5,0,0,1,12,2.25ZM12,6A3.75,3.75,0,0,0,8.25,9.75v37.5A3.75,3.75,0,0,0,12,51H42a3.75,3.75,0,0,0,3.75-3.75V9.75A3.75,3.75,0,0,0,42,6Z" fill="url(#linear-gradient)"/>
    <path id="Path_335" data-name="Path 335" d="M10.125,33.375A1.875,1.875,0,0,1,12,31.5H23.25a1.875,1.875,0,0,1,0,3.75H12A1.875,1.875,0,0,1,10.125,33.375Zm0-7.5A1.875,1.875,0,0,1,12,24H34.5a1.875,1.875,0,0,1,0,3.75H12A1.875,1.875,0,0,1,10.125,25.875Zm0-7.5A1.875,1.875,0,0,1,12,16.5H34.5a1.875,1.875,0,0,1,0,3.75H12A1.875,1.875,0,0,1,10.125,18.375Zm0-7.5A1.875,1.875,0,0,1,12,9H34.5a1.875,1.875,0,0,1,0,3.75H12A1.875,1.875,0,0,1,10.125,10.875Z" transform="translate(3.75 4.5)" fill="url(#linear-gradient)"/>
  </g>
</svg>
