<svg xmlns="http://www.w3.org/2000/svg" xmlns:xlink="http://www.w3.org/1999/xlink" viewBox="0 0 505.93 366.7"><defs><style>.cls-1{fill:url(#linear-gradient);}.cls-2{fill:#3ec6f2;}.cls-3{fill:#64c5b6;}</style><linearGradient id="linear-gradient" x1="129.82" y1="132.75" x2="389.21" y2="132.75" gradientUnits="userSpaceOnUse"><stop offset="0" stop-color="#42c5e4"/><stop offset="1" stop-color="#6cc6b3"/></linearGradient></defs><g id="Layer_2" data-name="Layer 2"><g id="Layer_1-2" data-name="Layer 1"><path class="cls-1" d="M257.28,0a59.59,59.59,0,0,1,7.17,2.37,39.38,39.38,0,0,1,6.48,4q39.35,28.68,78.64,57.42c.37.27.75.51,1.62,1.09-.26-26.66-13.11-44.78-36.36-56.94A72.74,72.74,0,0,1,350,19.85c19.24,12.72,31.85,30.25,36.78,52.89,1.08,5,.85,10.25,1,15.39.15,6.07,0,12.15,0,18.23a4.46,4.46,0,0,1-1.83,3.84,22.52,22.52,0,0,0-.2,35,5,5,0,0,1,2.06,4.35c-.13,6.2-.14,12.41-.19,18.62a4.55,4.55,0,0,1-3,4.38,19,19,0,0,1-8.42,2c-8.3-.18-16.62.23-24.9-.21-3.17-.16-6.31-1.82-9.33-3.12-.71-.3-1.21-1.86-1.23-2.86-.16-6.47-.27-12.94-.12-19.41a6.48,6.48,0,0,1,2-3.8c3.5-3.64,6.41-7.55,7.45-12.62,1.74-8.49-1.68-15.67-8.39-21-1.61-1.26-3.54-2.27-4.94-3.85a3.6,3.6,0,0,1-.93-2.31q.42-8.33,1.09-16.63a3,3,0,0,0-1.36-3.08q-33.1-24.09-66.16-48.27c-9.62-7-21.38-7-31,0Q202.39,63.71,166.54,90A24.61,24.61,0,0,0,156,110.67q-.07,57,0,113.93a16.8,16.8,0,0,0,17.13,16.94q80.4,0,160.8,0a16.24,16.24,0,0,0,10.23-3.35,3.37,3.37,0,0,1,3.39-.61,39.87,39.87,0,0,0,7.14,1.36l-7.29-3.52a20.59,20.59,0,0,1,1.92-3.13,2.6,2.6,0,0,1,1.92-.36c3.55.41,7.1.91,10.74,1.06l-11.37-4,.55-3,14.25-1.3,0-.28c-4-.53-8.05-1.18-12.1-1.52-1.87-.15-2.55-.77-2.26-2.59a13.09,13.09,0,0,0,0-2.1l14.49-3.12,0-.33H351.1a25.9,25.9,0,0,1,0-3.87c.45-2.88-.73-4.87-2.82-6.76-3.39-3.07-6.53-6.4-10-9.86h50.91c-.54.66-.81,1-1.13,1.37-3.23,3.51-6.51,7-9.66,10.56a4.87,4.87,0,0,0-1.11,2.89c-.1,10.07-.08,20.13-.12,30.2a25.76,25.76,0,0,1-20.37,25.59,24.82,24.82,0,0,1-5.43.6q-97.84,0-195.7,0a25.76,25.76,0,0,1-25.85-25.74q0-71.08,0-142.17A24.63,24.63,0,0,1,140.33,76.9q49-36,98.15-71.91A25.24,25.24,0,0,1,249.36.36a4,4,0,0,0,.86-.36Z"/><path class="cls-2" d="M0,310.23c.78,0,1.56.14,2.33.14,13.78,0,27.56,0,41.34,0a22.15,22.15,0,0,1,6.55.85c11.6,3.68,12.61,18.25,6.61,24.71-.62.67-1.3,1.27-2.1,2a14.64,14.64,0,0,1,6.17,8.3c2.87,10.61-4.1,20-15.06,20-15.28,0-30.56,0-45.84,0Zm13.11,42.88a2.29,2.29,0,0,0,.63.21c10.58,0,21.16,0,31.74,0a2.79,2.79,0,0,0,2-.95c1.28-1.79,1.06-3.83.41-5.8-.59-1.78-2.19-1.59-3.62-1.59H14.88c-.62,0-1.24.09-1.77.13Zm0-21.28H43.71c2.89,0,3.76-1,3.76-4.15s-.87-4.15-3.75-4.15H15.14c-.69,0-1.37.06-2.08.09Z"/><path class="cls-3" d="M416.9,366.7c0-3.92-.08-7.84,0-11.76a3.58,3.58,0,0,1,1.21-2.36q18-14.1,36-28.09c.19-.14.36-.33.83-.78H417v-13h58.74a73.29,73.29,0,0,0,.06,8.12c.39,3.44-1,5.5-3.69,7.59-11.08,8.61-22,17.5-32.91,26.29l-1,.86h38.71v13.1Z"/><path class="cls-3" d="M343.17,366.7V332.29H400v12.79H356.61v8.49h46.57V366.7Z"/><path class="cls-3" d="M490.64,366.7V332.19h15.29V366.7Z"/><path class="cls-3" d="M505.93,323.56H490.76V310.62h15.17Z"/><path class="cls-2" d="M239,366.26V332.47h13.09v20.88h29.69c4.24,0,5.66-1.42,5.66-5.62q0-9.21,0-18.43c0-4.46-1.27-5.76-5.67-5.76H239.07v-13c.63,0,1.27-.1,1.91-.1,13.59,0,27.18,0,40.77,0,8.86,0,15.83,4.89,18,12.58a18.25,18.25,0,0,1,.66,4.82c.07,7.05.09,14.11,0,21.17a17.24,17.24,0,0,1-17.24,17.37c-14.31.13-28.62,0-42.93,0C239.9,366.36,239.52,366.3,239,366.26Z"/><path class="cls-2" d="M71.07,310.5H84.26v37.71c0,3.57,1.56,5.13,5.11,5.13q12.84,0,25.68,0c3.92,0,5.74-1.83,5.74-5.69V310.5h12.94a12.16,12.16,0,0,1,.14,1.31q0,18.53,0,37.05c0,6.06-2.16,11.08-7,14.79a12.82,12.82,0,0,1-7.83,2.69c-11,0-22,.09-32.93,0-7.28-.07-13.67-6.19-14.69-13.81a36.67,36.67,0,0,1-.32-4.68C71.06,335.48,71.07,323.13,71.07,310.5Z"/><path class="cls-2" d="M174.34,310.51h13V353.3h43.07v12.9H174.34Z"/><path class="cls-2" d="M259.6,135.76c0-4,0-8,0-11.95,0-3.73,2.37-6.09,6.13-6.1q11.86,0,23.71,0c3.61,0,6.11,2.35,6.14,5.94q.12,12,0,24.1a5.74,5.74,0,0,1-6.1,6q-11.94,0-23.89,0a5.66,5.66,0,0,1-6-6C259.58,143.72,259.6,139.74,259.6,135.76Z"/><path class="cls-2" d="M247.55,135.7c0,4,0,8,0,12,0,3.77-2.35,6.07-6.13,6.08q-11.85,0-23.7,0c-3.58,0-6.05-2.17-6.11-5.74q-.19-12.23,0-24.47c.05-3.65,2.55-5.81,6.26-5.82q11.74,0,23.5,0c3.85,0,6.15,2.35,6.18,6.25S247.55,131.78,247.55,135.7Z"/><path class="cls-2" d="M229.63,201.66c-4,0-8,0-12,0-3.62,0-6-2.11-6.08-5.73q-.18-12.15,0-24.31c0-3.63,2.35-5.84,6-5.87q12.06-.12,24.12,0c3.61,0,5.84,2.38,5.85,6q.06,12.06,0,24.11c0,3.59-2.32,5.81-5.94,5.84C237.6,201.68,233.62,201.66,229.63,201.66Z"/><path class="cls-2" d="M277.46,201.66c-4,0-8,0-12,0a5.55,5.55,0,0,1-5.89-5.89q0-12.06,0-24.12c0-3.38,2.16-5.82,5.52-5.87q12.45-.17,24.9,0a5.46,5.46,0,0,1,5.55,5.69q.14,12.25,0,24.51c0,3.45-2.48,5.64-5.95,5.67C285.57,201.68,281.51,201.66,277.46,201.66Z"/><path class="cls-3" d="M403,323.57H343.36V310.74H403Z"/><path class="cls-2" d="M160.54,366.29H147.61V310.53h12.93Z"/></g></g></svg>