<svg xmlns="http://www.w3.org/2000/svg" xmlns:xlink="http://www.w3.org/1999/xlink" width="46.6" height="51.634" viewBox="0 0 46.6 51.634">
  <defs>
    <linearGradient id="linear-gradient" x1="0.5" x2="0.5" y2="1" gradientUnits="objectBoundingBox">
      <stop offset="0" stop-color="#20d0b3"/>
      <stop offset="1" stop-color="#1dcdfe"/>
    </linearGradient>
  </defs>
  <g id="bx-check-shield" transform="translate(-4.46 -2.998)">
    <path id="Path_357" data-name="Path 357" d="M50.98,15.65A2.576,2.576,0,0,0,49.566,13.6L28.915,3.271a2.581,2.581,0,0,0-2.311,0L5.952,13.6A2.587,2.587,0,0,0,4.539,15.65c-.029.277-2.482,27.795,22.172,38.757a2.547,2.547,0,0,0,2.1,0C53.46,43.445,51.008,15.929,50.98,15.65ZM27.762,49.2C10.287,40.755,9.461,22.728,9.6,17.548l18.158-9.08,18.144,9.073C46,22.677,45.059,40.82,27.762,49.2Z" transform="translate(0)" fill="url(#linear-gradient)"/>
    <path id="Path_358" data-name="Path 358" d="M20.509,23.521l-5.92-5.92-3.65,3.65,9.57,9.57L35.24,16.09l-3.65-3.65Z" transform="translate(4.671 6.807)" fill="url(#linear-gradient)"/>
  </g>
</svg>
