<svg id="Layer_3" data-name="Layer 3" xmlns="http://www.w3.org/2000/svg" xmlns:xlink="http://www.w3.org/1999/xlink" width="46.325" height="55.291" viewBox="0 0 46.325 55.291">
  <defs>
    <linearGradient id="linear-gradient" x1="0.5" y1="-0.071" x2="0.5" y2="0.939" gradientUnits="objectBoundingBox">
      <stop offset="0" stop-color="#f1f5f9"/>
      <stop offset="1" stop-color="#d8e5f4"/>
    </linearGradient>
  </defs>
  <path id="Path_22" data-name="Path 22" d="M44.37,57.8h-26.9A7.472,7.472,0,0,1,10,50.331V12.972A7.472,7.472,0,0,1,17.472,5.5H36.181a8.966,8.966,0,0,1,6.381,2.645L49.2,14.78a8.966,8.966,0,0,1,2.645,6.411v29.14A7.472,7.472,0,0,1,44.37,57.8Z" transform="translate(-10 -5.5)" fill="#e1eaf6"/>
  <path id="Path_23" data-name="Path 23" d="M44.37,59.8h-26.9A7.472,7.472,0,0,1,10,52.331V14.972A7.472,7.472,0,0,1,17.472,7.5H36.181a8.966,8.966,0,0,1,6.381,2.645L49.2,16.78a8.966,8.966,0,0,1,2.645,6.411v29.14A7.472,7.472,0,0,1,44.37,59.8Z" transform="translate(-10 -4.511)" fill="url(#linear-gradient)"/>
  <path id="Path_24" data-name="Path 24" d="M15.1,43.426a1.958,1.958,0,0,1-.583-1.494h0a6.067,6.067,0,0,1,2.5-4.05h0a20.159,20.159,0,0,1,6.142-3.542h0a26.6,26.6,0,0,0,1.2-6.8h0a18.8,18.8,0,0,1-4.633-6.217h0a11.178,11.178,0,0,1-.7-3.572h0a4.05,4.05,0,0,1,.523-2.137h0A2.032,2.032,0,0,1,21.216,14.6h0c1.823.12,3.108,1.793,4.139,4.6h0a22.326,22.326,0,0,1,.941,6.874h0v.687h0a38.764,38.764,0,0,0,6.949,4.961h0c1.629-.344,3.213-.658,4.6-.971h0a14.346,14.346,0,0,1,3.2-.4h0a5.8,5.8,0,0,1,2.794.583h0a2.227,2.227,0,0,1,1.285,1.913h0c-.164,1.958-2.167,2.989-4.887,2.989h0a12.1,12.1,0,0,1-2.406-.254h0A21.13,21.13,0,0,1,33.021,33.8h0A69.686,69.686,0,0,0,25,35.85h0l-.284.1h0a12.373,12.373,0,0,1-6.695,7.636h0a4.065,4.065,0,0,1-1.494.3h0a2.077,2.077,0,0,1-1.42-.523ZM16.6,41.932a2.227,2.227,0,0,0,.777-.164h0a9.116,9.116,0,0,0,4.782-4.842h0a16.438,16.438,0,0,0-3.811,2.436h0a4.662,4.662,0,0,0-1.823,2.57H16.6Zm21.668-8.353a10.46,10.46,0,0,0,2.017.209h0a4.827,4.827,0,0,0,2.421-.508h0c.493-.269.523-.478.508-.493h0a.613.613,0,0,0-.224-.194h0a3.915,3.915,0,0,0-1.853-.329h0a12.658,12.658,0,0,0-2.765.344h0l-2.047.448h0a12.508,12.508,0,0,0,1.958.538Zm-12.807,0c1.584-.478,3.3-.912,5.036-1.3h0A39.182,39.182,0,0,1,26.222,29.2h0a29.185,29.185,0,0,1-.762,4.378ZM21.216,16.558l-.09.09h0a2.092,2.092,0,0,0-.224,1.106h0a9.086,9.086,0,0,0,.6,2.989h0A12.134,12.134,0,0,0,24.324,24.9h0A18.635,18.635,0,0,0,23.5,19.9h0a8.055,8.055,0,0,0-1.4-2.66h0a1.629,1.629,0,0,0-.867-.628h0Z" transform="translate(-7.766 -1.001)" fill="#eff4f9"/>
  <path id="Path_25" data-name="Path 25" d="M15.1,42.426a1.958,1.958,0,0,1-.583-1.42h0a6.067,6.067,0,0,1,2.5-4.05h0a20.159,20.159,0,0,1,6.142-3.542h0a26.6,26.6,0,0,0,1.2-6.8h0a18.8,18.8,0,0,1-4.633-6.291h0a11.178,11.178,0,0,1-.7-3.572h0a4.05,4.05,0,0,1,.523-2.137h0A2.032,2.032,0,0,1,21.215,13.6h0c1.823.12,3.108,1.793,4.139,4.6h0a22.326,22.326,0,0,1,.941,6.874h0v.687h0a38.764,38.764,0,0,0,6.949,4.961h0c1.629-.344,3.213-.658,4.6-.971h0a14.345,14.345,0,0,1,3.2-.4h0a5.8,5.8,0,0,1,2.794.583h0a2.227,2.227,0,0,1,1.285,1.913h0c-.164,1.958-2.167,2.989-4.887,2.989h0a12.1,12.1,0,0,1-2.406-.254h0A21.13,21.13,0,0,1,33.02,32.8h0A69.679,69.679,0,0,0,25,34.85h0l-.284.1h0a12.373,12.373,0,0,1-6.695,7.636h0a4.065,4.065,0,0,1-1.494.3h0a2.077,2.077,0,0,1-1.42-.523ZM16.6,40.932a2.227,2.227,0,0,0,.777-.164h0a9.116,9.116,0,0,0,4.782-4.842h0a16.438,16.438,0,0,0-3.811,2.436h0a4.662,4.662,0,0,0-1.823,2.57H16.6Zm21.668-8.353a10.461,10.461,0,0,0,2.017.209h0a4.827,4.827,0,0,0,2.421-.508h0c.493-.269.523-.478.508-.493h0a.613.613,0,0,0-.224-.194h0a3.915,3.915,0,0,0-1.853-.329h0a12.657,12.657,0,0,0-2.765.344h0l-2.047.448h0a12.507,12.507,0,0,0,1.958.538Zm-12.807,0c1.584-.478,3.3-.912,5.036-1.3h0A39.183,39.183,0,0,1,26.221,28.2h0a29.185,29.185,0,0,1-.762,4.378ZM21.215,15.558l-.09.09h0a2.092,2.092,0,0,0-.224,1.106h0a9.086,9.086,0,0,0,.6,2.989h0A12.134,12.134,0,0,0,24.323,23.9h0A18.634,18.634,0,0,0,23.5,18.9h0a8.055,8.055,0,0,0-1.4-2.66h0a1.629,1.629,0,0,0-.867-.628h0Z" transform="translate(-7.766 -1.496)" fill="#a7c1db"/>
  <path id="Path_26" data-name="Path 26" d="M39.708,19.461H31.982A3.482,3.482,0,0,1,28.5,15.979V9.747a.747.747,0,1,1,1.494,0v6.231a1.987,1.987,0,0,0,1.987,1.987h7.726a.747.747,0,1,1,0,1.494Z" transform="translate(-0.854 -3.77)" fill="#a7c1db"/>
  <rect id="Rectangle_14" data-name="Rectangle 14" width="26.794" height="13.106" rx="1.91" transform="translate(19.531 38.614)" fill="#ec5d24"/>
  <path id="Path_27" data-name="Path 27" d="M28.761,37.37h-1.3v1.943a.9.9,0,0,1-.194.628.7.7,0,0,1-1,0,.926.926,0,0,1-.194-.628v-5.23a.852.852,0,0,1,.209-.643.971.971,0,0,1,.672-.209h1.793a4.214,4.214,0,0,1,1.21.134,1.659,1.659,0,0,1,.732.389,1.748,1.748,0,0,1,.463.658,2.376,2.376,0,0,1,.149.882,1.928,1.928,0,0,1-.643,1.584,2.839,2.839,0,0,1-1.9.493Zm-.344-3.153h-.956v2.092H28.4a3.213,3.213,0,0,0,.822-.09.971.971,0,0,0,.508-.344,1.061,1.061,0,0,0,.164-.613,1,1,0,0,0-.269-.732,1.733,1.733,0,0,0-1.21-.254Z" transform="translate(-2.057 8.208)" fill="#fff"/>
  <path id="Path_28" data-name="Path 28" d="M31.189,33.23H33a4.752,4.752,0,0,1,1.21.134,2.331,2.331,0,0,1,.926.493A3.512,3.512,0,0,1,36.2,36.652a5.291,5.291,0,0,1-.1,1.121,3.571,3.571,0,0,1-.329.926,2.989,2.989,0,0,1-.583.732,2.167,2.167,0,0,1-.6.389,2.242,2.242,0,0,1-.7.209,4.887,4.887,0,0,1-.852,0H31.279a1.21,1.21,0,0,1-.583-.12.493.493,0,0,1-.239-.329,1.778,1.778,0,0,1,0-.538V34.082a.867.867,0,0,1,.194-.643A.912.912,0,0,1,31.189,33.23Zm.538,1.106V39h1.6a1.494,1.494,0,0,0,.4-.09,1.076,1.076,0,0,0,.359-.209,2.555,2.555,0,0,0,.7-2.032,2.989,2.989,0,0,0-.314-1.494,1.345,1.345,0,0,0-.747-.643,3.811,3.811,0,0,0-1.091-.134Z" transform="translate(0.103 8.208)" fill="#fff"/>
  <path id="Path_29" data-name="Path 29" d="M39.226,34.381H36.461v1.763h2.286a.732.732,0,0,1,.478.134.524.524,0,0,1,0,.762.732.732,0,0,1-.478.134H36.461v2.271a.852.852,0,0,1-.194.628.7.7,0,0,1-1,0,.852.852,0,0,1-.194-.628V34.082a1.091,1.091,0,0,1,.09-.478.523.523,0,0,1,.284-.284,1.091,1.091,0,0,1,.478-.09H39.2a.747.747,0,0,1,.493.149.463.463,0,0,1,.164.389.448.448,0,0,1-.164.389.672.672,0,0,1-.463.224Z" transform="translate(2.392 8.208)" fill="#fff"/>
</svg>
